<svg width="300" height="80" viewBox="0 0 300 80" fill="none" xmlns="http://www.w3.org/2000/svg">
  <!-- Definir la fuente similar a Albert Sans -->
  <defs>
    <style>
      @import url('https://fonts.googleapis.com/css2?family=Albert+Sans:wght@600;700;800&amp;display=swap');
      .logo-text { font-family: 'Albert Sans', sans-serif; }
    </style>
  </defs>

  <!-- VETACAP con triángulo verde integrado -->
  <g transform="translate(20, 50)">
    <!-- V -->
    <path d="M0 0 L8 25 L16 0" stroke="#1036E2" stroke-width="5" fill="none" stroke-linecap="round" stroke-linejoin="round"/>

    <!-- E -->
    <g transform="translate(25, 0)">
      <path d="M0 0 L0 25 M0 0 L12 0 M0 12.5 L10 12.5 M0 25 L12 25" stroke="#1036E2" stroke-width="5" stroke-linecap="round" stroke-linejoin="round"/>
    </g>

    <!-- T -->
    <g transform="translate(48, 0)">
      <path d="M0 0 L16 0 M8 0 L8 25" stroke="#1036E2" stroke-width="5" stroke-linecap="round" stroke-linejoin="round"/>
    </g>

    <!-- Triángulo verde (flecha ascendente que forma la A) -->
    <g transform="translate(72, 0)">
      <path d="M8 0 L16 25 L0 25 Z" fill="#00C600"/>
    </g>

    <!-- C -->
    <g transform="translate(95, 0)">
      <path d="M14 2 A12 12.5 0 1 0 14 23" stroke="#1036E2" stroke-width="5" fill="none" stroke-linecap="round"/>
    </g>

    <!-- A (usando solo el contorno, ya que el triángulo verde lo representa) -->
    <g transform="translate(120, 0)">
      <path d="M0 25 L8 0 L16 25 M3 15 L13 15" stroke="#1036E2" stroke-width="5" fill="none" stroke-linecap="round" stroke-linejoin="round"/>
    </g>

    <!-- P -->
    <g transform="translate(145, 0)">
      <path d="M0 0 L0 25 M0 0 L10 0 A6 6 0 0 1 10 12 L0 12" stroke="#1036E2" stroke-width="5" fill="none" stroke-linecap="round" stroke-linejoin="round"/>
    </g>
  </g>
</svg>
